<?xml version="1.0" encoding="utf-8"?>
<!-- Generator: Adobe Illustrator 17.0.2, SVG Export Plug-In . SVG Version: 6.00 Build 0)  -->
<!DOCTYPE svg PUBLIC "-//W3C//DTD SVG 1.1//EN" "http://www.w3.org/Graphics/SVG/1.1/DTD/svg11.dtd">
<svg version="1.1" id="Layer_1" xmlns="http://www.w3.org/2000/svg" xmlns:xlink="http://www.w3.org/1999/xlink" x="0px" y="0px"
	 width="853px" height="618px" viewBox="0 0 853 618" enable-background="new 0 0 853 618" xml:space="preserve">
<circle fill="#FFFFFF" stroke="#000000" stroke-width="16" stroke-miterlimit="10" cx="365.93" cy="271.07" r="238.93"/>
<g id="Layer_1_1_" display="none">
	
		<image display="inline" overflow="visible" enable-background="new    " width="2560" height="1920" xlink:href="D37588B372DC761E.jpeg"  transform="matrix(0.1654 0 0 0.1654 183.238 127)">
	</image>
</g>
<path opacity="0.8" enable-background="new    " d="M177.438,146.062l0.562,2.312V150l2,3.875V156c0,0,1,0.125,1.125,0.625
	s-0.875,2.625-0.875,2.625s1.375,2.25,2.875,5c0,0,6.062,9.75,10.562,13.125c0,0,5.531,6,8.906,8.875c0,0,4.516,3.875,5.141,5.375
	c0,0,7.383,5.75,11.758,8.5c0,0,15.379,11.625,19.379,15.125c0,0,3.877,3.875,7.377,5.125c0,0,8.501,4.5,11.251,7.25
	c0,0,16.25,14.5,18.875,18.5c0,0,4.625,5,5,5.375c0,0,5.5,6.875,7.25,8.625c0,0,3,4.5,4.625,7.625c0,0,5.875,8,7.75,9.75
	c0,0,2.625,4.25,3.75,5.5c0,0,5.5,10.375,10.25,16.75c0,0,5,7.75,9,7.625V308c0,0-13.375,8.875-19.25,11.625
	c0,0-14.125,4.375-17.5,4.75c0,0,0.25,0.625-14.625,0.75c0,0-20.812-0.125-22.812-1.125c0,0-4.219-1.125-8.719-1.375
	c0,0-8.984-1.75-15.609-4c0,0-7.992-4-10.492-2.625c0,0-1.121-0.5-1.496,4.5c0,0-4.123,1.5-4.498,2.25c0,0-0.249,1.25,2.626,2.375
	c0,0,1.875,2.5,1.875,3.75c0,0-2.25,1.5-1.125,4.375c0,0,1.25,2.125,5.375,1.375l0.375,1.375H219h1l-0.375,0.5
	c0,0-4.125,2.875-5.75,5.25c0,0,1.5,2.25,5.625,5.875c0,0,8,5.688,8.75,8.938c0,0,3,4.844,7,4.969l4.25,0.734
	c0,0,1,1.617,2.125,1.742c0,0,5.5,1.246,8.375-0.004c0,0,4.5,3.623,10.375,4.373c0,0,10.625,1.374,19.375-0.876
	c0,0,14.25,8.125,28.5,3.875c0,0,7.688-1.375,12.688,0.25l1.062,0.98V374l-1,2.125c0,0-0.227,1.421-4.75-1.875
	c0,0-1.375-0.625-3.625,1.125c0,0-3.188,2.5-3.562,3.75c0,0,1.406-1.75,2.031-1.25c0,0,2.141,1.125,2.891,0.125l1.258-1.5
	l2.504,0.125l2.377,1.75l-0.999,1.5c0,0-1.25,0.125-3.25,1.5L314.75,382c0,0-0.375-1-1.625,0l-1.25,2.125c0,0-2,1.375-2,2.125
	l1.5-0.75c0,0,0.75,0.375,1.375,0c0,0,1.25,0.5,2.625-0.625l1.75-0.625l-0.5,1.125l-1.5,1.562c0,0-2.375,1.062-2.375,3.062H311h-1
	l-0.5,0.125c0,0,1.5-0.25,2.25,1.25c0,0,3.375,0.5,4.25-0.125c0,0,0.625-2.062,5.75-5.312c0,0,1.375-0.906,2.625-4.906
	c0,0,0-4.641-0.375-6.266c0,0,1.125-3.008,2.625-2.633c0,0,3.25-1.129,5.625,0.371c0,0-2.125,3.248,0,4.998
	c0,0,0.562,0.499,2.062,0.874c0,0,2.688,0.624,5.688,8.374V390l-1.125,1.403c0,0-1-0.722-2.375,0c0,0-3-0.597-4.125,0
	c0,0-0.688-0.528-3.188,2.972c0,0-1.969,1.75-2.594,4c0,0,4.516-3.625,4.891-2.125c0,0,1.258,0.625,1.383,2.125l0.879-0.75
	c0,0,0.752-1.125,0.752-1.75s0.251-2,0.251-2s1.125,1.875,2.75,2.375c0,0,1,0.875,0.125,3l-0.75,1.625l-1.625,0.625
	c0,0-0.625,0.5-2,2.625l1.625,0.75l1.625-0.75l1.25,0.75l0.875-0.625c0,0,0.375,2.625-0.875,3.75l-2,1.375
	c0,0-2.375,1.625-2.25,2.625h2.5l1.375-1.875c0,0,1.75-0.375,3.125-1.125c0,0,1.5-2.625,1.5-4.75V399l2-4c0,0,2.75-6.75,1.125-8.375
	l-1.625-2.875l-0.562-1.875c0,0-2.094-5.75-3.719-6.25c0,0,0.516-1.75,0.391-3.125c0,0,0.258-1.875,5.133-1.875
	c0,0,24.129-3.5,25.754-3c0,0,19.627-0.625,21.752-1.375s24.126-2.625,35.251-7.75c0,0,5.125-2.375,19.25,3.125
	c0,0,19.625,10.25,28.625,10.375c0,0,2.375,2.25,8,17.5c0,0,0.75,2.375,2.875-2.375c0,0,2.5-6.75,3.75-17.75
	c0,0,1.125-9.875,1.125-10.625c0,0,1.875-1.875,2-2.875c0,0-0.25-21.875-9.5-30.25l-3.75-3.375c0,0-1-0.625,0.75-1.5
	c0,0,37.625-16,41.5-18.75c0,0,1.625-1.875,16-3.375c0,0,19.5-6,23-8.875c0,0,4.75-1,8.125-2.5c0,0,5.25-3.438,5.375-8.719
	c0,0-0.25-5.906,4.75-7.031c0,0,1,1,0.75-12.125c0,0,2.25-16.625,1.625-19.75c0,0-6.125,15.875-6.375,17c0,0-1.625,1.5-2.125-1.125
	c0,0-0.125-13.5-1.75-16.75c0,0-1.25-5.25-2.875-4.5c0,0-1.75,26.375-4.125,26.75c0,0-0.875,1.5-3.125-0.625
	c0,0-1-3.625-12.25-10.125c0,0-3.625-4.875-6.125-3.375c0,0-4.75-0.125,8.75,12.875c0,0,4.875,6.625-1.375,5.625
	c0,0-35.25-11.625-39.625-11.25c0,0-4.25,1.5,4.875,5.75c0,0,1.125,1.75-0.75,1.5c0,0-15.75-3.5-19.875-3.375
	c0,0-2.375,1.625,6,3.125c0,0,4,2.5-2,3.75c0,0-22-3.125-31.125-0.5c0,0-15,3.75-21.875,6.5c0,0-9.5-0.75-25.5,4.875
	c0,0-14.875,5.5-18.5,7.25c0,0-4,2.562-14.125-4.469c0,0-15.875-18.656-21.25-21.906c0,0-0.125-2.5-43.5-17.75
	c0,0-24.125-8.375-35.5-12.125c0,0-16.125-5.125-31.5-15.5c0,0-12.625-9.25-14.25-11.75c0,0-2.875-3.25-4.75-3.875
	c0,0,4.375,7.375,9.375,10.75c0,0,8.375,8,2.875,7l-4.75-2.125c0,0-2.875-3.5-5.5-4c0,0-2.25-3.75-7.125-5.5
	c0,0-14.5-11-19.625-16.875c0,0-7.75-7.875-8.25-10.125c0,0-1.875-5.75-3.375-6.125l-3.125,0.875L199,172l-2.625-3.5
	c0,0-1.75-8.5-4.375-9c0,0-0.625-2.75-2.5-2.5c0,0,2.125,7.25,4.5,9.375c0,0,3.125,5.5,4.125,10.125l-3.75-2.875
	c0,0-4.875-7.75-6.75-9.625L184,155l-1.625-2.875c0,0,0.25-3.75-1.125-6.062l-0.625,1.062L177.438,146.062z"/>
</svg>
